<?xml version="1.0" standalone="no"?>
<!DOCTYPE svg PUBLIC "-//W3C//DTD SVG 20010904//EN"
 "http://www.w3.org/TR/2001/REC-SVG-20010904/DTD/svg10.dtd">
<svg version="1.0" xmlns="http://www.w3.org/2000/svg"
 width="1280.000000pt" height="832.000000pt" viewBox="0 0 1280.000000 832.000000"
 preserveAspectRatio="xMidYMid meet">
<g transform="translate(0.000000,832.000000) scale(0.100000,-0.100000)"
fill="#000000" stroke="none">
<path d="M10860 8313 c-8 -3 -40 -15 -70 -25 -52 -19 -166 -132 -2225 -2189
-1194 -1193 -2175 -2169 -2180 -2169 -5 0 -975 965 -2155 2143 -1420 1420
-2157 2150 -2182 2161 -88 39 -194 39 -270 0 -38 -20 -1640 -1604 -1699 -1680
-22 -28 -49 -80 -61 -114 -19 -57 -20 -68 -8 -114 7 -28 23 -71 36 -96 16 -33
872 -894 3081 -3101 1682 -1681 3074 -3065 3093 -3077 19 -11 61 -28 92 -38
56 -17 60 -17 115 0 32 10 74 27 93 37 19 10 1428 1411 3132 3111 3010 3006
3097 3095 3119 3153 29 76 29 134 0 210 -22 57 -60 97 -865 901 -810 811 -843
843 -901 864 -65 24 -121 33 -145 23z"/>
</g>
</svg>
